<?xml version="1.0" encoding="UTF-8"?>
<svg width="23px" height="27px" viewBox="0 0 23 27" version="1.1" xmlns="http://www.w3.org/2000/svg" xmlns:xlink="http://www.w3.org/1999/xlink">
    <title>Grommet/Bag</title>
    <g id="Page-1" stroke="none" stroke-width="1" fill="none" fill-rule="evenodd">
        <g id="Menu-Copy-9" transform="translate(-1137.000000, -42.000000)" fill="#000000">
            <g id="Grommet/Bag" transform="translate(1137.000000, 42.000000)">
                <path d="M21.915657,20.3973056 C21.9080666,23.0238779 19.8152845,25.1673387 17.2518976,25.1751129 L5.7481024,25.1751129 C3.18363113,25.1673387 1.09084909,23.0249885 1.08434303,20.3984162 L1.08434303,7.28887709 L6.12436943,7.28887709 L16.8767149,7.28887709 L21.915657,7.28887709 L21.915657,20.3973056 Z M7.20871246,5.50525121 C7.20871246,3.08191893 9.13450568,1.11060141 11.5016265,1.11060141 C13.8665787,1.11060141 15.7923719,3.08191893 15.7923719,5.50525121 L15.7923719,6.17827567 L7.20871246,6.17827567 L7.20871246,5.50525121 Z M16.8767149,6.17827567 L16.8767149,5.50525121 C16.8767149,2.46997755 14.465136,0 11.5016265,0 C8.53703267,0 6.12436943,2.46997755 6.12436943,5.50525121 L6.12436943,6.17827567 L0,6.17827567 L0,20.4006374 C0.00867474424,23.6369299 2.58615813,26.2757189 5.74701806,26.2857143 L17.2529819,26.2857143 C20.4127575,26.2768295 22.9902409,23.6369299 23,20.3984162 L23,6.17827567 L16.8767149,6.17827567 Z" id="Fill-1"></path>
            </g>
        </g>
    </g>
</svg>