<?xml version="1.0" encoding="UTF-8"?>
<svg width="62px" height="41px" viewBox="0 0 62 41" version="1.1" xmlns="http://www.w3.org/2000/svg" xmlns:xlink="http://www.w3.org/1999/xlink">
    <title>Blk</title>
    <g id="Page-1" stroke="none" stroke-width="1" fill="none" fill-rule="evenodd">
        <g id="Menu-Copy-9" transform="translate(-570.000000, -35.000000)" fill="#000000" fill-rule="nonzero">
            <g id="Blk" transform="translate(570.000000, 35.000000)">
                <path d="M6.61030139,20.728468 L6.60436932,3.30477074 C6.61030139,1.39084954 6.99786317,0.75153974 9.00290225,0.699432985 L10.8280019,0.699432985 L12.372317,0.699432985 L12.3703396,0.699432985 C20.2619677,0.699432985 24.0011481,4.77578453 24.0011481,10.6919054 C24.0011481,16.2893733 19.9119757,20.7304723 13.9126774,20.7304723 L6.61030139,20.728468 Z M62,0.691416561 L62,0.00400821125 L51.7177483,0.00400821125 L51.7177483,0.691416561 L52.5620794,0.695424772 C54.7351937,0.695424772 55.2117366,1.25256624 55.2532609,3.07229445 L55.2532609,20.728468 L35.8553977,20.728468 L35.8553977,3.3548734 C35.8553977,1.37080849 36.2528464,0.733502786 38.3527985,0.695424772 L39.616329,0.695424772 L39.616329,0.0060123179 L33.963068,0.0060123179 L29.2885983,0.0060123179 L29.2885983,0.695424772 L29.2885983,0.697428878 C29.3103492,0.697428878 30.1269972,0.695424772 30.1269972,0.695424772 C32.2645191,0.725486361 32.6659224,1.35076743 32.6698771,3.32681591 L32.6698771,40.0059634 C29.6860468,40.0059634 29.0058364,38.1942517 27.7798756,35.5207744 C23.9714878,27.2157592 21.646117,22.2235311 11.9175251,21.0771824 L13.9423377,21.0771824 C19.4472971,21.0571414 27.1728272,19.0329944 27.1728272,10.6237658 C27.1728272,1.05415973 16.5682666,0.00801642455 13.8276511,0 C13.8276511,0 5.49507255,0.0060123179 0,0.0060123179 L0,0.695424772 L0,0.697428878 C0.0296603411,0.695424772 0.168075267,0.695424772 0.686142559,0.695424772 C2.96405676,0.695424772 3.37732419,1.30868119 3.37930154,3.34084466 L3.37930154,37.8054551 C3.31602615,39.4468179 2.8315739,39.9919346 0.877946099,40.0219963 L0,40.0240003 L0,41 L10.6085154,41 L10.6085154,40.0240003 L9.07804177,40.0219963 C6.99588582,39.9799102 6.61227874,39.3385962 6.61227874,37.3645517 L6.60436932,37.3645517 L6.60832402,21.5120735 L9.36475839,21.5120735 C12.3129963,21.5120735 14.9903365,21.7405415 16.9162813,23.3237854 C22.2966672,27.7568678 22.5992026,41 31.6060596,41 L39.8022005,41 L39.8022005,40.0240003 L38.5208738,40.0240003 C36.2726199,40.015984 35.8553977,39.3967153 35.8553977,37.3645517 L35.8553977,21.5060613 L55.2532609,21.5060613 L55.2532609,37.6451266 C55.2117366,39.4668589 54.7351937,40.0240003 52.5620794,40.0240003 L51.7177483,40.0240003 L51.7177483,41 L62,41 L62,40.0240003 L61.1378726,40.0240003 C59.0596714,40.0240003 58.5336948,39.5129534 58.4565779,37.8796071 L58.4565779,2.83981816 C58.5336948,1.20446768 59.0596714,0.695424772 61.1378726,0.695424772 L62,0.691416561 Z" id="Fill-3"></path>
            </g>
        </g>
    </g>
</svg>